<svg width="1000" height="1000" viewBox="0 0 1000 1000" fill="none" xmlns="http://www.w3.org/2000/svg">
<rect width="1000" height="1000" fill="url(#paint0_linear_1_101)"/>
<path d="M197.643 244.488C204.485 218.954 230.731 203.801 256.265 210.643C281.799 217.485 296.953 243.731 290.111 269.266C289.11 273.001 287.691 276.512 285.923 279.766L427.819 407.114C443.461 392.876 464.197 384.137 486.972 383.949L492.5 313.775C483.395 309.968 475.738 302.696 471.68 292.851C463.547 273.12 472.948 250.533 492.678 242.4C512.408 234.266 534.996 243.668 543.129 263.399C551.262 283.129 541.861 305.717 522.131 313.85C519.907 314.767 517.645 315.458 515.373 315.94L509.798 386.705C536.055 393.406 557.643 411.779 568.71 435.973L709.685 344.098C699.125 323.795 698.837 298.698 711.127 277.41C730.264 244.265 772.646 232.909 805.791 252.045C838.936 271.181 850.292 313.564 831.156 346.709C812.019 379.854 769.637 391.21 736.492 372.074C731.725 369.322 727.409 366.087 723.569 362.469L575.628 458.884C576.357 463.47 576.738 468.172 576.738 472.963C576.738 495.39 568.442 515.879 554.754 531.532L638.313 620.195C650.041 614.701 663.862 613.668 677.011 618.4C703.374 627.886 717.055 656.948 707.569 683.311C698.082 709.673 669.021 723.354 642.658 713.868C616.296 704.382 602.615 675.32 612.101 648.957C614.041 643.564 616.801 638.702 620.189 634.46L537.529 546.75C523.314 556.364 506.174 561.981 487.721 561.981C478.518 561.981 469.641 560.583 461.29 557.99L383.321 735.724C396.315 744.248 405.239 758.608 406.179 775.315C407.753 803.288 386.352 827.24 358.379 828.815C330.406 830.389 306.452 808.988 304.878 781.015C303.304 753.042 324.705 729.089 352.678 727.515C355.745 727.342 358.765 727.445 361.711 727.803L440.419 548.385C421.851 536.715 407.897 518.38 401.913 496.734L307.322 503.139C304.511 516.536 296.322 528.762 283.634 536.319C259.563 550.658 228.426 542.768 214.088 518.697C199.75 494.627 207.64 463.49 231.71 449.152C255.781 434.813 286.918 442.703 301.256 466.774C303.805 471.053 305.65 475.555 306.828 480.147L398.708 473.925C398.705 473.605 398.703 473.284 398.703 472.963C398.703 455.147 403.938 438.554 412.951 424.637L270.41 296.711C259.358 304.067 245.32 306.818 231.489 303.111C205.954 296.27 190.801 270.023 197.643 244.488Z" fill="white"/>
<defs>
<linearGradient id="paint0_linear_1_101" x1="1000" y1="500" x2="0" y2="500" gradientUnits="userSpaceOnUse">
<stop offset="0.2" stop-color="#2F5CFF" stop-opacity="0.87"/>
<stop offset="1" stop-color="#1C3799"/>
</linearGradient>
</defs>
</svg>
